<svg width="16" height="16" viewBox="0 0 16 16" fill="none" xmlns="http://www.w3.org/2000/svg">
<path d="M11.332 9.53598C11.332 9.30556 11.332 9.19036 11.3667 9.08765C11.4675 8.7893 11.7332 8.67351 11.9994 8.55226C12.2987 8.41595 12.4483 8.3478 12.5966 8.33581C12.7649 8.3222 12.9335 8.35846 13.0774 8.4392C13.2681 8.54624 13.4011 8.74963 13.5373 8.91502C14.1662 9.67891 14.4807 10.0609 14.5957 10.482C14.6886 10.8219 14.6886 11.1774 14.5957 11.5173C14.4279 12.1316 13.8977 12.6466 13.5052 13.1233C13.3045 13.3671 13.2041 13.489 13.0774 13.5602C12.9335 13.6409 12.7649 13.6772 12.5966 13.6635C12.4483 13.6516 12.2987 13.5834 11.9994 13.4471C11.7332 13.3258 11.4675 13.21 11.3667 12.9117C11.332 12.809 11.332 12.6938 11.332 12.4634V9.53598Z" stroke="#141B34"/>
<path d="M4.66537 9.53609C4.66537 9.24592 4.65722 8.98515 4.42264 8.78114C4.33732 8.70694 4.2242 8.65542 3.99797 8.55237C3.6987 8.41606 3.54907 8.34791 3.40081 8.33592C2.95597 8.29994 2.71664 8.60355 2.46012 8.91513C1.8312 9.67902 1.51674 10.061 1.40167 10.4822C1.30882 10.8221 1.30882 11.1775 1.40167 11.5174C1.5695 12.1317 2.09971 12.6467 2.49217 13.1234C2.73956 13.4239 2.97588 13.698 3.40081 13.6637C3.54907 13.6517 3.6987 13.5835 3.99797 13.4472C4.2242 13.3442 4.33732 13.2926 4.42264 13.2184C4.65722 13.0144 4.66537 12.7536 4.66537 12.4635V9.53609Z" stroke="#141B34"/>
<path d="M12.6654 8.33301V6.99967C12.6654 4.42235 10.576 2.33301 7.9987 2.33301C5.42137 2.33301 3.33203 4.42235 3.33203 6.99967V8.33301" stroke="#141B34" stroke-linecap="square" stroke-linejoin="round"/>
</svg>
