<svg width="16" height="16" viewBox="0 0 16 16" fill="none" xmlns="http://www.w3.org/2000/svg">
<path fill-rule="evenodd" clip-rule="evenodd" d="M3.33203 4C3.33203 3.05719 3.33203 2.58579 3.62492 2.29289C3.91782 2 4.38922 2 5.33203 2H8.38466C10.0124 2 11.332 3.34315 11.332 5C11.332 6.65685 10.0124 8 8.38466 8H3.33203V4Z" stroke="#141B34" stroke-linecap="round" stroke-linejoin="round"/>
<path d="M8.28441 8H9.10981C10.7053 8 11.9987 9.34315 11.9987 11C11.9987 12.6569 10.7053 14 9.10981 14H5.33203C4.38922 14 3.91782 14 3.62492 13.7071C3.33203 13.4142 3.33203 12.9428 3.33203 12V8" stroke="#141B34" stroke-linecap="round" stroke-linejoin="round"/>
</svg>
