<svg width="16" height="16" viewBox="0 0 16 16" fill="none" xmlns="http://www.w3.org/2000/svg">
<path d="M1.66797 8.00033C1.66797 5.01476 1.66797 3.52198 2.59546 2.59449C3.52296 1.66699 5.01574 1.66699 8.0013 1.66699C10.9869 1.66699 12.4796 1.66699 13.4071 2.59449C14.3346 3.52198 14.3346 5.01476 14.3346 8.00033C14.3346 10.9859 14.3346 12.4787 13.4071 13.4062C12.4796 14.3337 10.9869 14.3337 8.0013 14.3337C5.01574 14.3337 3.52296 14.3337 2.59546 13.4062C1.66797 12.4787 1.66797 10.9859 1.66797 8.00033Z" stroke="#141B34"/>
<circle cx="11.001" cy="5" r="1" stroke="#141B34"/>
<path d="M10.6676 14.6663C10.2546 13.1829 9.29062 11.8544 7.91867 10.8891C6.43938 9.84831 4.58206 9.29743 2.6781 9.33479C2.45203 9.33427 2.22615 9.34148 2.00098 9.35638" stroke="#141B34" stroke-linejoin="round"/>
<path d="M8.66797 12.0003C9.80231 11.1159 11.0243 10.6622 12.2588 10.667C12.9588 10.6663 13.6555 10.8147 14.3346 11.1081" stroke="#141B34" stroke-linejoin="round"/>
</svg>
