<svg width="16" height="16" viewBox="0 0 16 16" fill="none" xmlns="http://www.w3.org/2000/svg">
<path d="M6.66797 8.81965C6.76239 8.97427 6.87442 9.1206 7.00408 9.25554C7.80909 10.0934 9.03608 10.2243 9.97302 9.64844C10.1466 9.54174 10.3103 9.41077 10.4594 9.25554L12.619 7.00794C13.5732 6.01489 13.5732 4.40483 12.619 3.41178C11.6648 2.41873 10.1178 2.41873 9.16367 3.41178L8.68798 3.90685" stroke="#141B34" stroke-linecap="round"/>
<path d="M7.31484 12.0933L6.83898 12.5885C5.88481 13.5816 4.33778 13.5816 3.3836 12.5885C2.42942 11.5955 2.42942 9.98544 3.3836 8.99239L5.54321 6.74479C6.49739 5.75174 8.04442 5.75174 8.9986 6.74479C9.12822 6.87969 9.24023 7.02598 9.33464 7.18056" stroke="#141B34" stroke-linecap="round"/>
</svg>
