<svg width="16" height="16" viewBox="0 0 16 16" fill="none" xmlns="http://www.w3.org/2000/svg">
<path d="M7.33203 5.33301L8.66536 5.33301" stroke="#141B34" stroke-linecap="round"/>
<path d="M1.33203 7.33366C1.33203 5.13377 1.33203 4.03383 2.01545 3.35041C2.69887 2.66699 3.79881 2.66699 5.9987 2.66699H6.66536C8.86525 2.66699 9.9652 2.66699 10.6486 3.35041C11.332 4.03383 11.332 5.13377 11.332 7.33366V8.66699C11.332 10.8669 11.332 11.9668 10.6486 12.6502C9.9652 13.3337 8.86525 13.3337 6.66536 13.3337H5.9987C3.79881 13.3337 2.69887 13.3337 2.01545 12.6502C1.33203 11.9668 1.33203 10.8669 1.33203 8.66699V7.33366Z" stroke="#141B34"/>
<path d="M11.332 5.93691L11.416 5.86765C12.8265 4.70383 13.5317 4.12192 14.0986 4.40289C14.6654 4.68386 14.6654 5.61537 14.6654 7.4784V8.52095C14.6654 10.384 14.6654 11.3155 14.0986 11.5965C13.5317 11.8774 12.8265 11.2955 11.416 10.1317L11.332 10.0624" stroke="#141B34" stroke-linecap="round"/>
</svg>
